<svg id="Capa_1" data-name="Capa 1" xmlns="http://www.w3.org/2000/svg" viewBox="0 0 144.07 117.91"><defs><style>.cls-1{fill:#0791e6;}.cls-2{fill:#a6c84d;}.cls-3{fill:#dbdbe2;}</style></defs><path class="cls-1" d="M615,906.77c5.78.26,6.17-8.7.39-9S609.17,906.51,615,906.77Z" transform="translate(-556 -855.96)"/><path class="cls-2" d="M582,930.4c3.25.14,3.47-4.89.22-5S578.77,930.25,582,930.4Z" transform="translate(-556 -855.96)"/><path class="cls-2" d="M679,902c3.25.14,3.47-4.89.22-5S675.7,901.89,679,902Z" transform="translate(-556 -855.96)"/><path class="cls-2" d="M657.36,868.3c3.25.14,3.47-4.89.22-5S654.1,868.15,657.36,868.3Z" transform="translate(-556 -855.96)"/><path class="cls-2" d="M604.54,967.33c3.25.14,3.47-4.89.22-5S601.29,967.18,604.54,967.33Z" transform="translate(-556 -855.96)"/><path class="cls-1" d="M636.81,897.81c-5.78-.26-6.17,8.7-.39,9S642.6,898.07,636.81,897.81Z" transform="translate(-556 -855.96)"/><path class="cls-1" d="M633.14,917.16H618.61a2.16,2.16,0,1,1,0-4.32h14.53a2.16,2.16,0,1,1,0,4.32Z" transform="translate(-556 -855.96)"/><path class="cls-3" d="M594.92,890.61H561.69a1.33,1.33,0,0,1,0-2.67h33.23a1.33,1.33,0,1,1,0,2.67Z" transform="translate(-556 -855.96)"/><path class="cls-3" d="M645.47,866.4H607a1.33,1.33,0,0,1,0-2.67h38.44a1.33,1.33,0,0,1,0,2.67Z" transform="translate(-556 -855.96)"/><path class="cls-3" d="M606.3,877.85H582.82a1.33,1.33,0,1,1,0-2.67H606.3a1.33,1.33,0,0,1,0,2.67Z" transform="translate(-556 -855.96)"/><path class="cls-3" d="M667.92,877.85H644.44a1.33,1.33,0,0,1,0-2.67h23.48a1.33,1.33,0,0,1,0,2.67Z" transform="translate(-556 -855.96)"/><path class="cls-3" d="M600.2,866.4H583a1.33,1.33,0,0,1,0-2.67H600.2a1.33,1.33,0,0,1,0,2.67Z" transform="translate(-556 -855.96)"/><path class="cls-3" d="M624.79,858.63H613.72a1.33,1.33,0,1,1,0-2.67h11.07a1.33,1.33,0,1,1,0,2.67Z" transform="translate(-556 -855.96)"/><path class="cls-3" d="M650.31,858.63H631.76a1.33,1.33,0,0,1,0-2.67h18.55a1.33,1.33,0,0,1,0,2.67Z" transform="translate(-556 -855.96)"/><path class="cls-3" d="M667.9,890.61H654.25a1.33,1.33,0,0,1,0-2.67H667.9a1.33,1.33,0,0,1,0,2.67Z" transform="translate(-556 -855.96)"/><path class="cls-3" d="M682.44,890.61h-9.2a1.33,1.33,0,0,1,0-2.67h9.2a1.33,1.33,0,0,1,0,2.67Z" transform="translate(-556 -855.96)"/><path class="cls-3" d="M681.55,936.89H657.22a1.33,1.33,0,0,1,0-2.67h24.33a1.33,1.33,0,0,1,0,2.67Z" transform="translate(-556 -855.96)"/><path class="cls-3" d="M695.21,936.89H685.7a1.33,1.33,0,1,1,0-2.67h9.51a1.33,1.33,0,1,1,0,2.67Z" transform="translate(-556 -855.96)"/><path class="cls-3" d="M698.73,927.4H657.22a1.33,1.33,0,0,1,0-2.67h41.51a1.33,1.33,0,1,1,0,2.67Z" transform="translate(-556 -855.96)"/><path class="cls-3" d="M670.87,900.11H657.22a1.33,1.33,0,0,1,0-2.67h13.65a1.33,1.33,0,0,1,0,2.67Z" transform="translate(-556 -855.96)"/><path class="cls-3" d="M664.64,914.35h-7.42a1.33,1.33,0,0,1,0-2.67h7.42a1.33,1.33,0,0,1,0,2.67Z" transform="translate(-556 -855.96)"/><path class="cls-3" d="M697.85,914.35H684.51a1.33,1.33,0,0,1,0-2.67h13.33a1.33,1.33,0,1,1,0,2.67Z" transform="translate(-556 -855.96)"/><path class="cls-3" d="M592.07,909H576.65a1.33,1.33,0,1,1,0-2.67h15.43a1.33,1.33,0,0,1,0,2.67Z" transform="translate(-556 -855.96)"/><path class="cls-3" d="M575.46,926.81H557.33a1.33,1.33,0,0,1,0-2.67h18.13a1.33,1.33,0,1,1,0,2.67Z" transform="translate(-556 -855.96)"/><path class="cls-3" d="M585.43,915.89H570a1.33,1.33,0,1,1,0-2.67h15.43a1.33,1.33,0,0,1,0,2.67Z" transform="translate(-556 -855.96)"/><path class="cls-3" d="M594.33,936.89H570a1.33,1.33,0,1,1,0-2.67h24.33a1.33,1.33,0,0,1,0,2.67Z" transform="translate(-556 -855.96)"/><path class="cls-3" d="M594.33,950.1H578.2a1.33,1.33,0,1,1,0-2.67h16.13a1.33,1.33,0,0,1,0,2.67Z" transform="translate(-556 -855.96)"/><path class="cls-3" d="M602.25,958.9H586.12a1.33,1.33,0,1,1,0-2.67h16.13a1.33,1.33,0,0,1,0,2.67Z" transform="translate(-556 -855.96)"/><path class="cls-3" d="M630.07,973.86h-30.3a1.33,1.33,0,0,1,0-2.67h30.3a1.33,1.33,0,1,1,0,2.67Z" transform="translate(-556 -855.96)"/><path class="cls-3" d="M648.11,973.86h-10.5a1.33,1.33,0,0,1,0-2.67h10.5a1.33,1.33,0,1,1,0,2.67Z" transform="translate(-556 -855.96)"/><path class="cls-3" d="M640.54,960.22H624.41a1.33,1.33,0,0,1,0-2.67h16.13a1.33,1.33,0,0,1,0,2.67Z" transform="translate(-556 -855.96)"/><path class="cls-3" d="M675.31,960.22H659.18a1.33,1.33,0,0,1,0-2.67h16.13a1.33,1.33,0,0,1,0,2.67Z" transform="translate(-556 -855.96)"/><path class="cls-3" d="M673.11,950.1H657a1.33,1.33,0,1,1,0-2.67h16.13a1.33,1.33,0,1,1,0,2.67Z" transform="translate(-556 -855.96)"/><path class="cls-3" d="M593.85,922.06h-9.2a1.33,1.33,0,0,1,0-2.67h9.2a1.33,1.33,0,1,1,0,2.67Z" transform="translate(-556 -855.96)"/><path class="cls-2" d="M571.56,901.63a1.34,1.34,0,0,1-.68-2.48l7.14-4.25a1.34,1.34,0,1,1,1.37,2.29l-7.14,4.25A1.33,1.33,0,0,1,571.56,901.63Z" transform="translate(-556 -855.96)"/><path class="cls-2" d="M577.25,903.08a1.33,1.33,0,0,1-1.15-.65l-4.25-7.14a1.34,1.34,0,1,1,2.29-1.37l4.25,7.14a1.33,1.33,0,0,1-1.15,2Z" transform="translate(-556 -855.96)"/><path class="cls-2" d="M679.61,917.92a1.32,1.32,0,0,1-.77-.24L672,912.9a1.33,1.33,0,1,1,1.53-2.19l6.8,4.77a1.33,1.33,0,0,1-.77,2.43Z" transform="translate(-556 -855.96)"/><path class="cls-2" d="M673.82,918.93a1.33,1.33,0,0,1-1.09-2.1l4.77-6.8a1.34,1.34,0,0,1,2.19,1.54l-4.77,6.8A1.34,1.34,0,0,1,673.82,918.93Z" transform="translate(-556 -855.96)"/><path class="cls-2" d="M655.84,965a1.33,1.33,0,0,1-.77-.24l-6.8-4.77a1.34,1.34,0,0,1,1.54-2.19l6.8,4.77a1.34,1.34,0,0,1-.77,2.43Z" transform="translate(-556 -855.96)"/><path class="cls-2" d="M650.05,966a1.33,1.33,0,0,1-1.09-2.1l4.77-6.8a1.34,1.34,0,0,1,2.19,1.54l-4.77,6.8A1.34,1.34,0,0,1,650.05,966Z" transform="translate(-556 -855.96)"/><path class="cls-1" d="M617.09,967.87a7.93,7.93,0,0,1-7.68-7.52l0-27.64a.65.65,0,0,0-.67-.65.72.72,0,0,0-.67.73v13.31a8.12,8.12,0,0,1-7.87,8c-4.15,0-7.67-3.25-7.68-7.1l0-17a2,2,0,0,1,0-.26l-.34-27.27c0-19,13.51-32.34,32.85-32.34,16.37,0,34,9.84,34,31.46v38.27s-.11,5.86-.12,6c0,4.46-3,7.72-7.09,7.72a7.93,7.93,0,0,1-7.68-7.52l-.05-6.22a.65.65,0,1,0-1.31,0v6a7.78,7.78,0,0,1-15.55.22l0-6.23a1.11,1.11,0,1,0-2.22,0v20.26A7.91,7.91,0,0,1,617.09,967.87Zm-8.37-39.81a4.66,4.66,0,0,1,4.67,4.65l0,27.63a3.78,3.78,0,0,0,7.55-.22V939.87a5.11,5.11,0,0,1,10.22,0l0,6.23a3.78,3.78,0,0,0,7.55-.2v-6a4.65,4.65,0,0,1,9.31-.07l.05,6.24a3.93,3.93,0,0,0,3.68,3.55c2.13,0,3.09-1.88,3.09-3.74,0,0,.12-6.06.12-6.06V901.59c0-19-15.07-27.46-30-27.46-13.89,0-28.85,8.86-28.85,28.31L596.5,930a2,2,0,0,1,0,.31l0,16.66a3.57,3.57,0,0,0,3.68,3.11,4.07,4.07,0,0,0,3.87-4V932.79A4.7,4.7,0,0,1,608.72,928.06Z" transform="translate(-556 -855.96)"/></svg>